%TF.GenerationSoftware,KiCad,Pcbnew,8.0.4*%
%TF.CreationDate,2024-12-13T14:18:57+03:00*%
%TF.ProjectId,Fara_controller,46617261-5f63-46f6-9e74-726f6c6c6572,rev?*%
%TF.SameCoordinates,Original*%
%TF.FileFunction,Soldermask,Top*%
%TF.FilePolarity,Negative*%
%FSLAX46Y46*%
G04 Gerber Fmt 4.6, Leading zero omitted, Abs format (unit mm)*
G04 Created by KiCad (PCBNEW 8.0.4) date 2024-12-13 14:18:57*
%MOMM*%
%LPD*%
G01*
G04 APERTURE LIST*
G04 Aperture macros list*
%AMRoundRect*
0 Rectangle with rounded corners*
0 $1 Rounding radius*
0 $2 $3 $4 $5 $6 $7 $8 $9 X,Y pos of 4 corners*
0 Add a 4 corners polygon primitive as box body*
4,1,4,$2,$3,$4,$5,$6,$7,$8,$9,$2,$3,0*
0 Add four circle primitives for the rounded corners*
1,1,$1+$1,$2,$3*
1,1,$1+$1,$4,$5*
1,1,$1+$1,$6,$7*
1,1,$1+$1,$8,$9*
0 Add four rect primitives between the rounded corners*
20,1,$1+$1,$2,$3,$4,$5,0*
20,1,$1+$1,$4,$5,$6,$7,0*
20,1,$1+$1,$6,$7,$8,$9,0*
20,1,$1+$1,$8,$9,$2,$3,0*%
G04 Aperture macros list end*
%ADD10C,1.524000*%
%ADD11R,1.730000X2.030000*%
%ADD12O,1.730000X2.030000*%
%ADD13RoundRect,0.237500X-0.237500X0.250000X-0.237500X-0.250000X0.237500X-0.250000X0.237500X0.250000X0*%
%ADD14C,3.200000*%
%ADD15RoundRect,0.475000X-2.075000X0.475000X-2.075000X-0.475000X2.075000X-0.475000X2.075000X0.475000X0*%
%ADD16O,1.700000X1.950000*%
%ADD17RoundRect,0.250000X-0.600000X-0.725000X0.600000X-0.725000X0.600000X0.725000X-0.600000X0.725000X0*%
%ADD18RoundRect,0.150000X-0.737500X-0.150000X0.737500X-0.150000X0.737500X0.150000X-0.737500X0.150000X0*%
%ADD19R,2.710000X3.400000*%
%ADD20RoundRect,0.250000X-0.750000X0.600000X-0.750000X-0.600000X0.750000X-0.600000X0.750000X0.600000X0*%
%ADD21O,2.000000X1.700000*%
%ADD22RoundRect,0.250001X1.099999X1.099999X-1.099999X1.099999X-1.099999X-1.099999X1.099999X-1.099999X0*%
%ADD23C,2.700000*%
%ADD24RoundRect,0.250000X1.000000X0.650000X-1.000000X0.650000X-1.000000X-0.650000X1.000000X-0.650000X0*%
%ADD25R,2.000000X2.000000*%
%ADD26C,2.000000*%
%ADD27RoundRect,0.250000X-1.500000X-0.550000X1.500000X-0.550000X1.500000X0.550000X-1.500000X0.550000X0*%
%ADD28RoundRect,0.237500X-0.300000X-0.237500X0.300000X-0.237500X0.300000X0.237500X-0.300000X0.237500X0*%
%ADD29R,2.030000X1.730000*%
%ADD30O,2.030000X1.730000*%
G04 APERTURE END LIST*
D10*
%TO.C,U5*%
X71110000Y-51640000D03*
X71110000Y-56720000D03*
X71110000Y-59260000D03*
X88890000Y-59260000D03*
X88890000Y-51640000D03*
%TD*%
D11*
%TO.C,X6*%
X58400000Y-45800000D03*
D12*
X60940000Y-45800000D03*
X63480000Y-45800000D03*
%TD*%
D13*
%TO.C,R3*%
X67350000Y-45487500D03*
X67350000Y-47312500D03*
%TD*%
%TO.C,R2*%
X67200000Y-34287500D03*
X67200000Y-36112500D03*
%TD*%
D14*
%TO.C,REF\u002A\u002A*%
X104000000Y-57000000D03*
%TD*%
D11*
%TO.C,X4*%
X58450000Y-31650000D03*
D12*
X60990000Y-31650000D03*
X63530000Y-31650000D03*
%TD*%
D10*
%TO.C,U4*%
X71160000Y-40510000D03*
X71160000Y-45590000D03*
X71160000Y-48130000D03*
X88940000Y-48130000D03*
X88940000Y-40510000D03*
%TD*%
%TO.C,U3*%
X71110000Y-29440000D03*
X71110000Y-34520000D03*
X71110000Y-37060000D03*
X88890000Y-37060000D03*
X88890000Y-29440000D03*
%TD*%
D14*
%TO.C,REF\u002A\u002A*%
X44000000Y-57000000D03*
%TD*%
D15*
%TO.C,L1*%
X44600000Y-30300000D03*
X44600000Y-34500000D03*
%TD*%
D16*
%TO.C,X7*%
X61750000Y-56725000D03*
X59250000Y-56725000D03*
X56750000Y-56725000D03*
X54250000Y-56725000D03*
D17*
X51750000Y-56725000D03*
%TD*%
D13*
%TO.C,R4*%
X67300000Y-56737500D03*
X67300000Y-58562500D03*
%TD*%
D18*
%TO.C,U1*%
X54362500Y-30995000D03*
X54362500Y-32265000D03*
X54362500Y-33535000D03*
X54362500Y-34805000D03*
X49237500Y-34805000D03*
X49237500Y-33535000D03*
X49237500Y-32265000D03*
X49237500Y-30995000D03*
D19*
X51800000Y-32900000D03*
%TD*%
D20*
%TO.C,X8*%
X97575000Y-20950000D03*
D21*
X97575000Y-23450000D03*
%TD*%
D22*
%TO.C,X1*%
X54650000Y-23000000D03*
D23*
X50690000Y-23000000D03*
%TD*%
D20*
%TO.C,X9*%
X97965000Y-31635000D03*
D21*
X97965000Y-34135000D03*
%TD*%
D24*
%TO.C,VD1*%
X46100000Y-27000000D03*
X42100000Y-27000000D03*
%TD*%
D14*
%TO.C,REF\u002A\u002A*%
X104000000Y-21000000D03*
%TD*%
D13*
%TO.C,R1*%
X66600000Y-26887500D03*
X66600000Y-28712500D03*
%TD*%
D25*
%TO.C,C1*%
X63050000Y-18782323D03*
D26*
X63050000Y-23782323D03*
%TD*%
D27*
%TO.C,C3*%
X44700000Y-39700000D03*
X50100000Y-39700000D03*
%TD*%
D20*
%TO.C,X10*%
X97965000Y-43435000D03*
D21*
X97965000Y-45935000D03*
%TD*%
D10*
%TO.C,U2*%
X71160000Y-18510000D03*
X71160000Y-23590000D03*
X71160000Y-26130000D03*
X88940000Y-26130000D03*
X88940000Y-18510000D03*
%TD*%
D14*
%TO.C,REF\u002A\u002A*%
X44000000Y-21000000D03*
%TD*%
D28*
%TO.C,C2*%
X49187500Y-29000000D03*
X50912500Y-29000000D03*
%TD*%
D20*
%TO.C,X11*%
X97525000Y-54250000D03*
D21*
X97525000Y-56750000D03*
%TD*%
D20*
%TO.C,X2*%
X44900000Y-46850000D03*
D21*
X44900000Y-49350000D03*
%TD*%
D11*
%TO.C,X5*%
X58400000Y-38750000D03*
D12*
X60940000Y-38750000D03*
X63480000Y-38750000D03*
%TD*%
D29*
%TO.C,X3*%
X51850000Y-50900000D03*
D30*
X51850000Y-48360000D03*
X51850000Y-45820000D03*
%TD*%
M02*
