%TF.GenerationSoftware,KiCad,Pcbnew,8.0.4*%
%TF.CreationDate,2024-12-13T14:18:57+03:00*%
%TF.ProjectId,Fara_controller,46617261-5f63-46f6-9e74-726f6c6c6572,rev?*%
%TF.SameCoordinates,Original*%
%TF.FileFunction,Soldermask,Bot*%
%TF.FilePolarity,Negative*%
%FSLAX46Y46*%
G04 Gerber Fmt 4.6, Leading zero omitted, Abs format (unit mm)*
G04 Created by KiCad (PCBNEW 8.0.4) date 2024-12-13 14:18:57*
%MOMM*%
%LPD*%
G01*
G04 APERTURE LIST*
G04 Aperture macros list*
%AMRoundRect*
0 Rectangle with rounded corners*
0 $1 Rounding radius*
0 $2 $3 $4 $5 $6 $7 $8 $9 X,Y pos of 4 corners*
0 Add a 4 corners polygon primitive as box body*
4,1,4,$2,$3,$4,$5,$6,$7,$8,$9,$2,$3,0*
0 Add four circle primitives for the rounded corners*
1,1,$1+$1,$2,$3*
1,1,$1+$1,$4,$5*
1,1,$1+$1,$6,$7*
1,1,$1+$1,$8,$9*
0 Add four rect primitives between the rounded corners*
20,1,$1+$1,$2,$3,$4,$5,0*
20,1,$1+$1,$4,$5,$6,$7,0*
20,1,$1+$1,$6,$7,$8,$9,0*
20,1,$1+$1,$8,$9,$2,$3,0*%
G04 Aperture macros list end*
%ADD10C,1.524000*%
%ADD11R,1.730000X2.030000*%
%ADD12O,1.730000X2.030000*%
%ADD13C,3.200000*%
%ADD14O,1.700000X1.950000*%
%ADD15RoundRect,0.250000X-0.600000X-0.725000X0.600000X-0.725000X0.600000X0.725000X-0.600000X0.725000X0*%
%ADD16RoundRect,0.250000X-0.750000X0.600000X-0.750000X-0.600000X0.750000X-0.600000X0.750000X0.600000X0*%
%ADD17O,2.000000X1.700000*%
%ADD18RoundRect,0.250001X1.099999X1.099999X-1.099999X1.099999X-1.099999X-1.099999X1.099999X-1.099999X0*%
%ADD19C,2.700000*%
%ADD20R,2.000000X2.000000*%
%ADD21C,2.000000*%
%ADD22R,2.030000X1.730000*%
%ADD23O,2.030000X1.730000*%
G04 APERTURE END LIST*
D10*
%TO.C,U5*%
X71110000Y-51640000D03*
X71110000Y-56720000D03*
X71110000Y-59260000D03*
X88890000Y-59260000D03*
X88890000Y-51640000D03*
%TD*%
D11*
%TO.C,X6*%
X58400000Y-45800000D03*
D12*
X60940000Y-45800000D03*
X63480000Y-45800000D03*
%TD*%
D13*
%TO.C,REF\u002A\u002A*%
X104000000Y-57000000D03*
%TD*%
D11*
%TO.C,X4*%
X58450000Y-31650000D03*
D12*
X60990000Y-31650000D03*
X63530000Y-31650000D03*
%TD*%
D10*
%TO.C,U4*%
X71160000Y-40510000D03*
X71160000Y-45590000D03*
X71160000Y-48130000D03*
X88940000Y-48130000D03*
X88940000Y-40510000D03*
%TD*%
%TO.C,U3*%
X71110000Y-29440000D03*
X71110000Y-34520000D03*
X71110000Y-37060000D03*
X88890000Y-37060000D03*
X88890000Y-29440000D03*
%TD*%
D13*
%TO.C,REF\u002A\u002A*%
X44000000Y-57000000D03*
%TD*%
D14*
%TO.C,X7*%
X61750000Y-56725000D03*
X59250000Y-56725000D03*
X56750000Y-56725000D03*
X54250000Y-56725000D03*
D15*
X51750000Y-56725000D03*
%TD*%
D16*
%TO.C,X8*%
X97575000Y-20950000D03*
D17*
X97575000Y-23450000D03*
%TD*%
D18*
%TO.C,X1*%
X54650000Y-23000000D03*
D19*
X50690000Y-23000000D03*
%TD*%
D16*
%TO.C,X9*%
X97965000Y-31635000D03*
D17*
X97965000Y-34135000D03*
%TD*%
D13*
%TO.C,REF\u002A\u002A*%
X104000000Y-21000000D03*
%TD*%
D20*
%TO.C,C1*%
X63050000Y-18782323D03*
D21*
X63050000Y-23782323D03*
%TD*%
D16*
%TO.C,X10*%
X97965000Y-43435000D03*
D17*
X97965000Y-45935000D03*
%TD*%
D10*
%TO.C,U2*%
X71160000Y-18510000D03*
X71160000Y-23590000D03*
X71160000Y-26130000D03*
X88940000Y-26130000D03*
X88940000Y-18510000D03*
%TD*%
D13*
%TO.C,REF\u002A\u002A*%
X44000000Y-21000000D03*
%TD*%
D16*
%TO.C,X11*%
X97525000Y-54250000D03*
D17*
X97525000Y-56750000D03*
%TD*%
D16*
%TO.C,X2*%
X44900000Y-46850000D03*
D17*
X44900000Y-49350000D03*
%TD*%
D11*
%TO.C,X5*%
X58400000Y-38750000D03*
D12*
X60940000Y-38750000D03*
X63480000Y-38750000D03*
%TD*%
D22*
%TO.C,X3*%
X51850000Y-50900000D03*
D23*
X51850000Y-48360000D03*
X51850000Y-45820000D03*
%TD*%
M02*
