%TF.GenerationSoftware,KiCad,Pcbnew,8.0.4*%
%TF.CreationDate,2024-12-13T14:18:57+03:00*%
%TF.ProjectId,Fara_controller,46617261-5f63-46f6-9e74-726f6c6c6572,rev?*%
%TF.SameCoordinates,Original*%
%TF.FileFunction,Legend,Top*%
%TF.FilePolarity,Positive*%
%FSLAX46Y46*%
G04 Gerber Fmt 4.6, Leading zero omitted, Abs format (unit mm)*
G04 Created by KiCad (PCBNEW 8.0.4) date 2024-12-13 14:18:57*
%MOMM*%
%LPD*%
G01*
G04 APERTURE LIST*
%ADD10C,0.100000*%
%ADD11C,0.150000*%
%ADD12C,0.120000*%
G04 APERTURE END LIST*
D10*
X92188095Y-50007419D02*
X92188095Y-50816942D01*
X92188095Y-50816942D02*
X92235714Y-50912180D01*
X92235714Y-50912180D02*
X92283333Y-50959800D01*
X92283333Y-50959800D02*
X92378571Y-51007419D01*
X92378571Y-51007419D02*
X92569047Y-51007419D01*
X92569047Y-51007419D02*
X92664285Y-50959800D01*
X92664285Y-50959800D02*
X92711904Y-50912180D01*
X92711904Y-50912180D02*
X92759523Y-50816942D01*
X92759523Y-50816942D02*
X92759523Y-50007419D01*
X93711904Y-50007419D02*
X93235714Y-50007419D01*
X93235714Y-50007419D02*
X93188095Y-50483609D01*
X93188095Y-50483609D02*
X93235714Y-50435990D01*
X93235714Y-50435990D02*
X93330952Y-50388371D01*
X93330952Y-50388371D02*
X93569047Y-50388371D01*
X93569047Y-50388371D02*
X93664285Y-50435990D01*
X93664285Y-50435990D02*
X93711904Y-50483609D01*
X93711904Y-50483609D02*
X93759523Y-50578847D01*
X93759523Y-50578847D02*
X93759523Y-50816942D01*
X93759523Y-50816942D02*
X93711904Y-50912180D01*
X93711904Y-50912180D02*
X93664285Y-50959800D01*
X93664285Y-50959800D02*
X93569047Y-51007419D01*
X93569047Y-51007419D02*
X93330952Y-51007419D01*
X93330952Y-51007419D02*
X93235714Y-50959800D01*
X93235714Y-50959800D02*
X93188095Y-50912180D01*
D11*
X57590476Y-50004819D02*
X58257142Y-51004819D01*
X58257142Y-50004819D02*
X57590476Y-51004819D01*
X59066666Y-50004819D02*
X58876190Y-50004819D01*
X58876190Y-50004819D02*
X58780952Y-50052438D01*
X58780952Y-50052438D02*
X58733333Y-50100057D01*
X58733333Y-50100057D02*
X58638095Y-50242914D01*
X58638095Y-50242914D02*
X58590476Y-50433390D01*
X58590476Y-50433390D02*
X58590476Y-50814342D01*
X58590476Y-50814342D02*
X58638095Y-50909580D01*
X58638095Y-50909580D02*
X58685714Y-50957200D01*
X58685714Y-50957200D02*
X58780952Y-51004819D01*
X58780952Y-51004819D02*
X58971428Y-51004819D01*
X58971428Y-51004819D02*
X59066666Y-50957200D01*
X59066666Y-50957200D02*
X59114285Y-50909580D01*
X59114285Y-50909580D02*
X59161904Y-50814342D01*
X59161904Y-50814342D02*
X59161904Y-50576247D01*
X59161904Y-50576247D02*
X59114285Y-50481009D01*
X59114285Y-50481009D02*
X59066666Y-50433390D01*
X59066666Y-50433390D02*
X58971428Y-50385771D01*
X58971428Y-50385771D02*
X58780952Y-50385771D01*
X58780952Y-50385771D02*
X58685714Y-50433390D01*
X58685714Y-50433390D02*
X58638095Y-50481009D01*
X58638095Y-50481009D02*
X58590476Y-50576247D01*
X67033333Y-49404819D02*
X66700000Y-48928628D01*
X66461905Y-49404819D02*
X66461905Y-48404819D01*
X66461905Y-48404819D02*
X66842857Y-48404819D01*
X66842857Y-48404819D02*
X66938095Y-48452438D01*
X66938095Y-48452438D02*
X66985714Y-48500057D01*
X66985714Y-48500057D02*
X67033333Y-48595295D01*
X67033333Y-48595295D02*
X67033333Y-48738152D01*
X67033333Y-48738152D02*
X66985714Y-48833390D01*
X66985714Y-48833390D02*
X66938095Y-48881009D01*
X66938095Y-48881009D02*
X66842857Y-48928628D01*
X66842857Y-48928628D02*
X66461905Y-48928628D01*
X67366667Y-48404819D02*
X67985714Y-48404819D01*
X67985714Y-48404819D02*
X67652381Y-48785771D01*
X67652381Y-48785771D02*
X67795238Y-48785771D01*
X67795238Y-48785771D02*
X67890476Y-48833390D01*
X67890476Y-48833390D02*
X67938095Y-48881009D01*
X67938095Y-48881009D02*
X67985714Y-48976247D01*
X67985714Y-48976247D02*
X67985714Y-49214342D01*
X67985714Y-49214342D02*
X67938095Y-49309580D01*
X67938095Y-49309580D02*
X67890476Y-49357200D01*
X67890476Y-49357200D02*
X67795238Y-49404819D01*
X67795238Y-49404819D02*
X67509524Y-49404819D01*
X67509524Y-49404819D02*
X67414286Y-49357200D01*
X67414286Y-49357200D02*
X67366667Y-49309580D01*
X66633333Y-33054819D02*
X66300000Y-32578628D01*
X66061905Y-33054819D02*
X66061905Y-32054819D01*
X66061905Y-32054819D02*
X66442857Y-32054819D01*
X66442857Y-32054819D02*
X66538095Y-32102438D01*
X66538095Y-32102438D02*
X66585714Y-32150057D01*
X66585714Y-32150057D02*
X66633333Y-32245295D01*
X66633333Y-32245295D02*
X66633333Y-32388152D01*
X66633333Y-32388152D02*
X66585714Y-32483390D01*
X66585714Y-32483390D02*
X66538095Y-32531009D01*
X66538095Y-32531009D02*
X66442857Y-32578628D01*
X66442857Y-32578628D02*
X66061905Y-32578628D01*
X67014286Y-32150057D02*
X67061905Y-32102438D01*
X67061905Y-32102438D02*
X67157143Y-32054819D01*
X67157143Y-32054819D02*
X67395238Y-32054819D01*
X67395238Y-32054819D02*
X67490476Y-32102438D01*
X67490476Y-32102438D02*
X67538095Y-32150057D01*
X67538095Y-32150057D02*
X67585714Y-32245295D01*
X67585714Y-32245295D02*
X67585714Y-32340533D01*
X67585714Y-32340533D02*
X67538095Y-32483390D01*
X67538095Y-32483390D02*
X66966667Y-33054819D01*
X66966667Y-33054819D02*
X67585714Y-33054819D01*
X60140476Y-27704819D02*
X60807142Y-28704819D01*
X60807142Y-27704819D02*
X60140476Y-28704819D01*
X61616666Y-28038152D02*
X61616666Y-28704819D01*
X61378571Y-27657200D02*
X61140476Y-28371485D01*
X61140476Y-28371485D02*
X61759523Y-28371485D01*
D10*
X92138095Y-39007419D02*
X92138095Y-39816942D01*
X92138095Y-39816942D02*
X92185714Y-39912180D01*
X92185714Y-39912180D02*
X92233333Y-39959800D01*
X92233333Y-39959800D02*
X92328571Y-40007419D01*
X92328571Y-40007419D02*
X92519047Y-40007419D01*
X92519047Y-40007419D02*
X92614285Y-39959800D01*
X92614285Y-39959800D02*
X92661904Y-39912180D01*
X92661904Y-39912180D02*
X92709523Y-39816942D01*
X92709523Y-39816942D02*
X92709523Y-39007419D01*
X93614285Y-39340752D02*
X93614285Y-40007419D01*
X93376190Y-38959800D02*
X93138095Y-39674085D01*
X93138095Y-39674085D02*
X93757142Y-39674085D01*
X92188095Y-27557419D02*
X92188095Y-28366942D01*
X92188095Y-28366942D02*
X92235714Y-28462180D01*
X92235714Y-28462180D02*
X92283333Y-28509800D01*
X92283333Y-28509800D02*
X92378571Y-28557419D01*
X92378571Y-28557419D02*
X92569047Y-28557419D01*
X92569047Y-28557419D02*
X92664285Y-28509800D01*
X92664285Y-28509800D02*
X92711904Y-28462180D01*
X92711904Y-28462180D02*
X92759523Y-28366942D01*
X92759523Y-28366942D02*
X92759523Y-27557419D01*
X93140476Y-27557419D02*
X93759523Y-27557419D01*
X93759523Y-27557419D02*
X93426190Y-27938371D01*
X93426190Y-27938371D02*
X93569047Y-27938371D01*
X93569047Y-27938371D02*
X93664285Y-27985990D01*
X93664285Y-27985990D02*
X93711904Y-28033609D01*
X93711904Y-28033609D02*
X93759523Y-28128847D01*
X93759523Y-28128847D02*
X93759523Y-28366942D01*
X93759523Y-28366942D02*
X93711904Y-28462180D01*
X93711904Y-28462180D02*
X93664285Y-28509800D01*
X93664285Y-28509800D02*
X93569047Y-28557419D01*
X93569047Y-28557419D02*
X93283333Y-28557419D01*
X93283333Y-28557419D02*
X93188095Y-28509800D01*
X93188095Y-28509800D02*
X93140476Y-28462180D01*
D11*
X40533333Y-36404819D02*
X40057143Y-36404819D01*
X40057143Y-36404819D02*
X40057143Y-35404819D01*
X41390476Y-36404819D02*
X40819048Y-36404819D01*
X41104762Y-36404819D02*
X41104762Y-35404819D01*
X41104762Y-35404819D02*
X41009524Y-35547676D01*
X41009524Y-35547676D02*
X40914286Y-35642914D01*
X40914286Y-35642914D02*
X40819048Y-35690533D01*
X60590476Y-52629819D02*
X61257142Y-53629819D01*
X61257142Y-52629819D02*
X60590476Y-53629819D01*
X61542857Y-52629819D02*
X62209523Y-52629819D01*
X62209523Y-52629819D02*
X61780952Y-53629819D01*
X66783333Y-55554819D02*
X66450000Y-55078628D01*
X66211905Y-55554819D02*
X66211905Y-54554819D01*
X66211905Y-54554819D02*
X66592857Y-54554819D01*
X66592857Y-54554819D02*
X66688095Y-54602438D01*
X66688095Y-54602438D02*
X66735714Y-54650057D01*
X66735714Y-54650057D02*
X66783333Y-54745295D01*
X66783333Y-54745295D02*
X66783333Y-54888152D01*
X66783333Y-54888152D02*
X66735714Y-54983390D01*
X66735714Y-54983390D02*
X66688095Y-55031009D01*
X66688095Y-55031009D02*
X66592857Y-55078628D01*
X66592857Y-55078628D02*
X66211905Y-55078628D01*
X67640476Y-54888152D02*
X67640476Y-55554819D01*
X67402381Y-54507200D02*
X67164286Y-55221485D01*
X67164286Y-55221485D02*
X67783333Y-55221485D01*
X53338095Y-28954819D02*
X53338095Y-29764342D01*
X53338095Y-29764342D02*
X53385714Y-29859580D01*
X53385714Y-29859580D02*
X53433333Y-29907200D01*
X53433333Y-29907200D02*
X53528571Y-29954819D01*
X53528571Y-29954819D02*
X53719047Y-29954819D01*
X53719047Y-29954819D02*
X53814285Y-29907200D01*
X53814285Y-29907200D02*
X53861904Y-29859580D01*
X53861904Y-29859580D02*
X53909523Y-29764342D01*
X53909523Y-29764342D02*
X53909523Y-28954819D01*
X54909523Y-29954819D02*
X54338095Y-29954819D01*
X54623809Y-29954819D02*
X54623809Y-28954819D01*
X54623809Y-28954819D02*
X54528571Y-29097676D01*
X54528571Y-29097676D02*
X54433333Y-29192914D01*
X54433333Y-29192914D02*
X54338095Y-29240533D01*
X100915476Y-24754819D02*
X101582142Y-25754819D01*
X101582142Y-24754819D02*
X100915476Y-25754819D01*
X102105952Y-25183390D02*
X102010714Y-25135771D01*
X102010714Y-25135771D02*
X101963095Y-25088152D01*
X101963095Y-25088152D02*
X101915476Y-24992914D01*
X101915476Y-24992914D02*
X101915476Y-24945295D01*
X101915476Y-24945295D02*
X101963095Y-24850057D01*
X101963095Y-24850057D02*
X102010714Y-24802438D01*
X102010714Y-24802438D02*
X102105952Y-24754819D01*
X102105952Y-24754819D02*
X102296428Y-24754819D01*
X102296428Y-24754819D02*
X102391666Y-24802438D01*
X102391666Y-24802438D02*
X102439285Y-24850057D01*
X102439285Y-24850057D02*
X102486904Y-24945295D01*
X102486904Y-24945295D02*
X102486904Y-24992914D01*
X102486904Y-24992914D02*
X102439285Y-25088152D01*
X102439285Y-25088152D02*
X102391666Y-25135771D01*
X102391666Y-25135771D02*
X102296428Y-25183390D01*
X102296428Y-25183390D02*
X102105952Y-25183390D01*
X102105952Y-25183390D02*
X102010714Y-25231009D01*
X102010714Y-25231009D02*
X101963095Y-25278628D01*
X101963095Y-25278628D02*
X101915476Y-25373866D01*
X101915476Y-25373866D02*
X101915476Y-25564342D01*
X101915476Y-25564342D02*
X101963095Y-25659580D01*
X101963095Y-25659580D02*
X102010714Y-25707200D01*
X102010714Y-25707200D02*
X102105952Y-25754819D01*
X102105952Y-25754819D02*
X102296428Y-25754819D01*
X102296428Y-25754819D02*
X102391666Y-25707200D01*
X102391666Y-25707200D02*
X102439285Y-25659580D01*
X102439285Y-25659580D02*
X102486904Y-25564342D01*
X102486904Y-25564342D02*
X102486904Y-25373866D01*
X102486904Y-25373866D02*
X102439285Y-25278628D01*
X102439285Y-25278628D02*
X102391666Y-25231009D01*
X102391666Y-25231009D02*
X102296428Y-25183390D01*
X51860476Y-27354819D02*
X52527142Y-28354819D01*
X52527142Y-27354819D02*
X51860476Y-28354819D01*
X53431904Y-28354819D02*
X52860476Y-28354819D01*
X53146190Y-28354819D02*
X53146190Y-27354819D01*
X53146190Y-27354819D02*
X53050952Y-27497676D01*
X53050952Y-27497676D02*
X52955714Y-27592914D01*
X52955714Y-27592914D02*
X52860476Y-27640533D01*
X102290476Y-31154819D02*
X102957142Y-32154819D01*
X102957142Y-31154819D02*
X102290476Y-32154819D01*
X103385714Y-32154819D02*
X103576190Y-32154819D01*
X103576190Y-32154819D02*
X103671428Y-32107200D01*
X103671428Y-32107200D02*
X103719047Y-32059580D01*
X103719047Y-32059580D02*
X103814285Y-31916723D01*
X103814285Y-31916723D02*
X103861904Y-31726247D01*
X103861904Y-31726247D02*
X103861904Y-31345295D01*
X103861904Y-31345295D02*
X103814285Y-31250057D01*
X103814285Y-31250057D02*
X103766666Y-31202438D01*
X103766666Y-31202438D02*
X103671428Y-31154819D01*
X103671428Y-31154819D02*
X103480952Y-31154819D01*
X103480952Y-31154819D02*
X103385714Y-31202438D01*
X103385714Y-31202438D02*
X103338095Y-31250057D01*
X103338095Y-31250057D02*
X103290476Y-31345295D01*
X103290476Y-31345295D02*
X103290476Y-31583390D01*
X103290476Y-31583390D02*
X103338095Y-31678628D01*
X103338095Y-31678628D02*
X103385714Y-31726247D01*
X103385714Y-31726247D02*
X103480952Y-31773866D01*
X103480952Y-31773866D02*
X103671428Y-31773866D01*
X103671428Y-31773866D02*
X103766666Y-31726247D01*
X103766666Y-31726247D02*
X103814285Y-31678628D01*
X103814285Y-31678628D02*
X103861904Y-31583390D01*
X42790476Y-23904819D02*
X43123809Y-24904819D01*
X43123809Y-24904819D02*
X43457142Y-23904819D01*
X43790476Y-24904819D02*
X43790476Y-23904819D01*
X43790476Y-23904819D02*
X44028571Y-23904819D01*
X44028571Y-23904819D02*
X44171428Y-23952438D01*
X44171428Y-23952438D02*
X44266666Y-24047676D01*
X44266666Y-24047676D02*
X44314285Y-24142914D01*
X44314285Y-24142914D02*
X44361904Y-24333390D01*
X44361904Y-24333390D02*
X44361904Y-24476247D01*
X44361904Y-24476247D02*
X44314285Y-24666723D01*
X44314285Y-24666723D02*
X44266666Y-24761961D01*
X44266666Y-24761961D02*
X44171428Y-24857200D01*
X44171428Y-24857200D02*
X44028571Y-24904819D01*
X44028571Y-24904819D02*
X43790476Y-24904819D01*
X45314285Y-24904819D02*
X44742857Y-24904819D01*
X45028571Y-24904819D02*
X45028571Y-23904819D01*
X45028571Y-23904819D02*
X44933333Y-24047676D01*
X44933333Y-24047676D02*
X44838095Y-24142914D01*
X44838095Y-24142914D02*
X44742857Y-24190533D01*
X66533333Y-30754819D02*
X66200000Y-30278628D01*
X65961905Y-30754819D02*
X65961905Y-29754819D01*
X65961905Y-29754819D02*
X66342857Y-29754819D01*
X66342857Y-29754819D02*
X66438095Y-29802438D01*
X66438095Y-29802438D02*
X66485714Y-29850057D01*
X66485714Y-29850057D02*
X66533333Y-29945295D01*
X66533333Y-29945295D02*
X66533333Y-30088152D01*
X66533333Y-30088152D02*
X66485714Y-30183390D01*
X66485714Y-30183390D02*
X66438095Y-30231009D01*
X66438095Y-30231009D02*
X66342857Y-30278628D01*
X66342857Y-30278628D02*
X65961905Y-30278628D01*
X67485714Y-30754819D02*
X66914286Y-30754819D01*
X67200000Y-30754819D02*
X67200000Y-29754819D01*
X67200000Y-29754819D02*
X67104762Y-29897676D01*
X67104762Y-29897676D02*
X67009524Y-29992914D01*
X67009524Y-29992914D02*
X66914286Y-30040533D01*
X57883333Y-17459580D02*
X57835714Y-17507200D01*
X57835714Y-17507200D02*
X57692857Y-17554819D01*
X57692857Y-17554819D02*
X57597619Y-17554819D01*
X57597619Y-17554819D02*
X57454762Y-17507200D01*
X57454762Y-17507200D02*
X57359524Y-17411961D01*
X57359524Y-17411961D02*
X57311905Y-17316723D01*
X57311905Y-17316723D02*
X57264286Y-17126247D01*
X57264286Y-17126247D02*
X57264286Y-16983390D01*
X57264286Y-16983390D02*
X57311905Y-16792914D01*
X57311905Y-16792914D02*
X57359524Y-16697676D01*
X57359524Y-16697676D02*
X57454762Y-16602438D01*
X57454762Y-16602438D02*
X57597619Y-16554819D01*
X57597619Y-16554819D02*
X57692857Y-16554819D01*
X57692857Y-16554819D02*
X57835714Y-16602438D01*
X57835714Y-16602438D02*
X57883333Y-16650057D01*
X58835714Y-17554819D02*
X58264286Y-17554819D01*
X58550000Y-17554819D02*
X58550000Y-16554819D01*
X58550000Y-16554819D02*
X58454762Y-16697676D01*
X58454762Y-16697676D02*
X58359524Y-16792914D01*
X58359524Y-16792914D02*
X58264286Y-16840533D01*
X41333333Y-40259580D02*
X41285714Y-40307200D01*
X41285714Y-40307200D02*
X41142857Y-40354819D01*
X41142857Y-40354819D02*
X41047619Y-40354819D01*
X41047619Y-40354819D02*
X40904762Y-40307200D01*
X40904762Y-40307200D02*
X40809524Y-40211961D01*
X40809524Y-40211961D02*
X40761905Y-40116723D01*
X40761905Y-40116723D02*
X40714286Y-39926247D01*
X40714286Y-39926247D02*
X40714286Y-39783390D01*
X40714286Y-39783390D02*
X40761905Y-39592914D01*
X40761905Y-39592914D02*
X40809524Y-39497676D01*
X40809524Y-39497676D02*
X40904762Y-39402438D01*
X40904762Y-39402438D02*
X41047619Y-39354819D01*
X41047619Y-39354819D02*
X41142857Y-39354819D01*
X41142857Y-39354819D02*
X41285714Y-39402438D01*
X41285714Y-39402438D02*
X41333333Y-39450057D01*
X41666667Y-39354819D02*
X42285714Y-39354819D01*
X42285714Y-39354819D02*
X41952381Y-39735771D01*
X41952381Y-39735771D02*
X42095238Y-39735771D01*
X42095238Y-39735771D02*
X42190476Y-39783390D01*
X42190476Y-39783390D02*
X42238095Y-39831009D01*
X42238095Y-39831009D02*
X42285714Y-39926247D01*
X42285714Y-39926247D02*
X42285714Y-40164342D01*
X42285714Y-40164342D02*
X42238095Y-40259580D01*
X42238095Y-40259580D02*
X42190476Y-40307200D01*
X42190476Y-40307200D02*
X42095238Y-40354819D01*
X42095238Y-40354819D02*
X41809524Y-40354819D01*
X41809524Y-40354819D02*
X41714286Y-40307200D01*
X41714286Y-40307200D02*
X41666667Y-40259580D01*
X101514286Y-43504819D02*
X102180952Y-44504819D01*
X102180952Y-43504819D02*
X101514286Y-44504819D01*
X103085714Y-44504819D02*
X102514286Y-44504819D01*
X102800000Y-44504819D02*
X102800000Y-43504819D01*
X102800000Y-43504819D02*
X102704762Y-43647676D01*
X102704762Y-43647676D02*
X102609524Y-43742914D01*
X102609524Y-43742914D02*
X102514286Y-43790533D01*
X103704762Y-43504819D02*
X103800000Y-43504819D01*
X103800000Y-43504819D02*
X103895238Y-43552438D01*
X103895238Y-43552438D02*
X103942857Y-43600057D01*
X103942857Y-43600057D02*
X103990476Y-43695295D01*
X103990476Y-43695295D02*
X104038095Y-43885771D01*
X104038095Y-43885771D02*
X104038095Y-44123866D01*
X104038095Y-44123866D02*
X103990476Y-44314342D01*
X103990476Y-44314342D02*
X103942857Y-44409580D01*
X103942857Y-44409580D02*
X103895238Y-44457200D01*
X103895238Y-44457200D02*
X103800000Y-44504819D01*
X103800000Y-44504819D02*
X103704762Y-44504819D01*
X103704762Y-44504819D02*
X103609524Y-44457200D01*
X103609524Y-44457200D02*
X103561905Y-44409580D01*
X103561905Y-44409580D02*
X103514286Y-44314342D01*
X103514286Y-44314342D02*
X103466667Y-44123866D01*
X103466667Y-44123866D02*
X103466667Y-43885771D01*
X103466667Y-43885771D02*
X103514286Y-43695295D01*
X103514286Y-43695295D02*
X103561905Y-43600057D01*
X103561905Y-43600057D02*
X103609524Y-43552438D01*
X103609524Y-43552438D02*
X103704762Y-43504819D01*
D10*
X92338095Y-16607419D02*
X92338095Y-17416942D01*
X92338095Y-17416942D02*
X92385714Y-17512180D01*
X92385714Y-17512180D02*
X92433333Y-17559800D01*
X92433333Y-17559800D02*
X92528571Y-17607419D01*
X92528571Y-17607419D02*
X92719047Y-17607419D01*
X92719047Y-17607419D02*
X92814285Y-17559800D01*
X92814285Y-17559800D02*
X92861904Y-17512180D01*
X92861904Y-17512180D02*
X92909523Y-17416942D01*
X92909523Y-17416942D02*
X92909523Y-16607419D01*
X93338095Y-16702657D02*
X93385714Y-16655038D01*
X93385714Y-16655038D02*
X93480952Y-16607419D01*
X93480952Y-16607419D02*
X93719047Y-16607419D01*
X93719047Y-16607419D02*
X93814285Y-16655038D01*
X93814285Y-16655038D02*
X93861904Y-16702657D01*
X93861904Y-16702657D02*
X93909523Y-16797895D01*
X93909523Y-16797895D02*
X93909523Y-16893133D01*
X93909523Y-16893133D02*
X93861904Y-17035990D01*
X93861904Y-17035990D02*
X93290476Y-17607419D01*
X93290476Y-17607419D02*
X93909523Y-17607419D01*
D11*
X49883333Y-27929580D02*
X49835714Y-27977200D01*
X49835714Y-27977200D02*
X49692857Y-28024819D01*
X49692857Y-28024819D02*
X49597619Y-28024819D01*
X49597619Y-28024819D02*
X49454762Y-27977200D01*
X49454762Y-27977200D02*
X49359524Y-27881961D01*
X49359524Y-27881961D02*
X49311905Y-27786723D01*
X49311905Y-27786723D02*
X49264286Y-27596247D01*
X49264286Y-27596247D02*
X49264286Y-27453390D01*
X49264286Y-27453390D02*
X49311905Y-27262914D01*
X49311905Y-27262914D02*
X49359524Y-27167676D01*
X49359524Y-27167676D02*
X49454762Y-27072438D01*
X49454762Y-27072438D02*
X49597619Y-27024819D01*
X49597619Y-27024819D02*
X49692857Y-27024819D01*
X49692857Y-27024819D02*
X49835714Y-27072438D01*
X49835714Y-27072438D02*
X49883333Y-27120057D01*
X50264286Y-27120057D02*
X50311905Y-27072438D01*
X50311905Y-27072438D02*
X50407143Y-27024819D01*
X50407143Y-27024819D02*
X50645238Y-27024819D01*
X50645238Y-27024819D02*
X50740476Y-27072438D01*
X50740476Y-27072438D02*
X50788095Y-27120057D01*
X50788095Y-27120057D02*
X50835714Y-27215295D01*
X50835714Y-27215295D02*
X50835714Y-27310533D01*
X50835714Y-27310533D02*
X50788095Y-27453390D01*
X50788095Y-27453390D02*
X50216667Y-28024819D01*
X50216667Y-28024819D02*
X50835714Y-28024819D01*
X101024286Y-51519819D02*
X101690952Y-52519819D01*
X101690952Y-51519819D02*
X101024286Y-52519819D01*
X102595714Y-52519819D02*
X102024286Y-52519819D01*
X102310000Y-52519819D02*
X102310000Y-51519819D01*
X102310000Y-51519819D02*
X102214762Y-51662676D01*
X102214762Y-51662676D02*
X102119524Y-51757914D01*
X102119524Y-51757914D02*
X102024286Y-51805533D01*
X103548095Y-52519819D02*
X102976667Y-52519819D01*
X103262381Y-52519819D02*
X103262381Y-51519819D01*
X103262381Y-51519819D02*
X103167143Y-51662676D01*
X103167143Y-51662676D02*
X103071905Y-51757914D01*
X103071905Y-51757914D02*
X102976667Y-51805533D01*
X41490476Y-42854819D02*
X42157142Y-43854819D01*
X42157142Y-42854819D02*
X41490476Y-43854819D01*
X42490476Y-42950057D02*
X42538095Y-42902438D01*
X42538095Y-42902438D02*
X42633333Y-42854819D01*
X42633333Y-42854819D02*
X42871428Y-42854819D01*
X42871428Y-42854819D02*
X42966666Y-42902438D01*
X42966666Y-42902438D02*
X43014285Y-42950057D01*
X43014285Y-42950057D02*
X43061904Y-43045295D01*
X43061904Y-43045295D02*
X43061904Y-43140533D01*
X43061904Y-43140533D02*
X43014285Y-43283390D01*
X43014285Y-43283390D02*
X42442857Y-43854819D01*
X42442857Y-43854819D02*
X43061904Y-43854819D01*
X54940476Y-39554819D02*
X55607142Y-40554819D01*
X55607142Y-39554819D02*
X54940476Y-40554819D01*
X56464285Y-39554819D02*
X55988095Y-39554819D01*
X55988095Y-39554819D02*
X55940476Y-40031009D01*
X55940476Y-40031009D02*
X55988095Y-39983390D01*
X55988095Y-39983390D02*
X56083333Y-39935771D01*
X56083333Y-39935771D02*
X56321428Y-39935771D01*
X56321428Y-39935771D02*
X56416666Y-39983390D01*
X56416666Y-39983390D02*
X56464285Y-40031009D01*
X56464285Y-40031009D02*
X56511904Y-40126247D01*
X56511904Y-40126247D02*
X56511904Y-40364342D01*
X56511904Y-40364342D02*
X56464285Y-40459580D01*
X56464285Y-40459580D02*
X56416666Y-40507200D01*
X56416666Y-40507200D02*
X56321428Y-40554819D01*
X56321428Y-40554819D02*
X56083333Y-40554819D01*
X56083333Y-40554819D02*
X55988095Y-40507200D01*
X55988095Y-40507200D02*
X55940476Y-40459580D01*
X52990476Y-42854819D02*
X53657142Y-43854819D01*
X53657142Y-42854819D02*
X52990476Y-43854819D01*
X53942857Y-42854819D02*
X54561904Y-42854819D01*
X54561904Y-42854819D02*
X54228571Y-43235771D01*
X54228571Y-43235771D02*
X54371428Y-43235771D01*
X54371428Y-43235771D02*
X54466666Y-43283390D01*
X54466666Y-43283390D02*
X54514285Y-43331009D01*
X54514285Y-43331009D02*
X54561904Y-43426247D01*
X54561904Y-43426247D02*
X54561904Y-43664342D01*
X54561904Y-43664342D02*
X54514285Y-43759580D01*
X54514285Y-43759580D02*
X54466666Y-43807200D01*
X54466666Y-43807200D02*
X54371428Y-43854819D01*
X54371428Y-43854819D02*
X54085714Y-43854819D01*
X54085714Y-43854819D02*
X53990476Y-43807200D01*
X53990476Y-43807200D02*
X53942857Y-43759580D01*
%TO.C,U5*%
D12*
X68570000Y-50450000D02*
X91430000Y-50450000D01*
X91430000Y-60610000D01*
X68570000Y-60610000D01*
X68570000Y-50450000D01*
%TO.C,X6*%
X64850000Y-49200000D02*
X57050000Y-49200000D01*
X64850000Y-43150000D02*
X64850000Y-49200000D01*
X63480000Y-48090000D02*
X63480000Y-49100000D01*
X58400000Y-49100000D02*
X58400000Y-48090000D01*
X58400000Y-48090000D02*
X63480000Y-48090000D01*
X57050000Y-49200000D02*
X57050000Y-43150000D01*
X57050000Y-43150000D02*
X64850000Y-43150000D01*
%TO.C,R3*%
X66827500Y-46145276D02*
X66827500Y-46654724D01*
X67872500Y-46145276D02*
X67872500Y-46654724D01*
%TO.C,R2*%
X66677500Y-34945276D02*
X66677500Y-35454724D01*
X67722500Y-34945276D02*
X67722500Y-35454724D01*
%TO.C,X4*%
X64900000Y-35050000D02*
X57100000Y-35050000D01*
X64900000Y-29000000D02*
X64900000Y-35050000D01*
X63530000Y-33940000D02*
X63530000Y-34950000D01*
X58450000Y-34950000D02*
X58450000Y-33940000D01*
X58450000Y-33940000D02*
X63530000Y-33940000D01*
X57100000Y-35050000D02*
X57100000Y-29000000D01*
X57100000Y-29000000D02*
X64900000Y-29000000D01*
%TO.C,U4*%
X68620000Y-39320000D02*
X91480000Y-39320000D01*
X91480000Y-49480000D01*
X68620000Y-49480000D01*
X68620000Y-39320000D01*
%TO.C,U3*%
X68570000Y-28250000D02*
X91430000Y-28250000D01*
X91430000Y-38410000D01*
X68570000Y-38410000D01*
X68570000Y-28250000D01*
%TO.C,L1*%
X41500000Y-29300000D02*
X41500000Y-35500000D01*
X41500000Y-29300000D02*
X41900000Y-29300000D01*
X41500000Y-35500000D02*
X41900000Y-35500000D01*
X47700000Y-29300000D02*
X47300000Y-29300000D01*
X47700000Y-29300000D02*
X47700000Y-35500000D01*
X47700000Y-35500000D02*
X47300000Y-35500000D01*
%TO.C,X7*%
X64310000Y-60235000D02*
X64310000Y-54265000D01*
X64310000Y-54265000D02*
X49190000Y-54265000D01*
X64300000Y-56525000D02*
X63550000Y-56525000D01*
X64300000Y-55025000D02*
X64300000Y-54275000D01*
X64300000Y-54275000D02*
X62500000Y-54275000D01*
X63550000Y-59475000D02*
X56750000Y-59475000D01*
X63550000Y-56525000D02*
X63550000Y-59475000D01*
X62500000Y-55025000D02*
X64300000Y-55025000D01*
X62500000Y-54275000D02*
X62500000Y-55025000D01*
X61000000Y-55025000D02*
X61000000Y-54275000D01*
X61000000Y-54275000D02*
X52500000Y-54275000D01*
X52500000Y-55025000D02*
X61000000Y-55025000D01*
X52500000Y-54275000D02*
X52500000Y-55025000D01*
X51000000Y-55025000D02*
X51000000Y-54275000D01*
X51000000Y-54275000D02*
X49200000Y-54275000D01*
X50150000Y-53975000D02*
X48900000Y-53975000D01*
X49950000Y-59475000D02*
X56750000Y-59475000D01*
X49950000Y-56525000D02*
X49950000Y-59475000D01*
X49200000Y-56525000D02*
X49950000Y-56525000D01*
X49200000Y-55025000D02*
X51000000Y-55025000D01*
X49200000Y-54275000D02*
X49200000Y-55025000D01*
X49190000Y-60235000D02*
X64310000Y-60235000D01*
X49190000Y-54265000D02*
X49190000Y-60235000D01*
X48900000Y-53975000D02*
X48900000Y-55225000D01*
%TO.C,R4*%
X66777500Y-57395276D02*
X66777500Y-57904724D01*
X67822500Y-57395276D02*
X67822500Y-57904724D01*
%TO.C,U1*%
X49100000Y-30435000D02*
X48860000Y-30105000D01*
X49340000Y-30105000D01*
X49100000Y-30435000D01*
G36*
X49100000Y-30435000D02*
G01*
X48860000Y-30105000D01*
X49340000Y-30105000D01*
X49100000Y-30435000D01*
G37*
X53510584Y-35460000D02*
X53750000Y-35460000D01*
X53510584Y-30340000D02*
X53750000Y-30340000D01*
X50089416Y-35460000D02*
X49850000Y-35460000D01*
X50089416Y-30340000D02*
X49850000Y-30340000D01*
%TO.C,X8*%
X94065000Y-18390000D02*
X94065000Y-26010000D01*
X94065000Y-26010000D02*
X100035000Y-26010000D01*
X94825000Y-19150000D02*
X94825000Y-22200000D01*
X94825000Y-25250000D02*
X94825000Y-22200000D01*
X97775000Y-18400000D02*
X97775000Y-19150000D01*
X97775000Y-19150000D02*
X94825000Y-19150000D01*
X97775000Y-25250000D02*
X94825000Y-25250000D01*
X97775000Y-26000000D02*
X97775000Y-25250000D01*
X99275000Y-18400000D02*
X99275000Y-20200000D01*
X99275000Y-20200000D02*
X100025000Y-20200000D01*
X99275000Y-21700000D02*
X99275000Y-22700000D01*
X99275000Y-22700000D02*
X100025000Y-22700000D01*
X99275000Y-24200000D02*
X99275000Y-26000000D01*
X99275000Y-26000000D02*
X100025000Y-26000000D01*
X100025000Y-18400000D02*
X99275000Y-18400000D01*
X100025000Y-20200000D02*
X100025000Y-18400000D01*
X100025000Y-21700000D02*
X99275000Y-21700000D01*
X100025000Y-22700000D02*
X100025000Y-21700000D01*
X100025000Y-24200000D02*
X99275000Y-24200000D01*
X100025000Y-26000000D02*
X100025000Y-24200000D01*
X100035000Y-18390000D02*
X94065000Y-18390000D01*
X100035000Y-26010000D02*
X100035000Y-18390000D01*
X100325000Y-18100000D02*
X99075000Y-18100000D01*
X100325000Y-19350000D02*
X100325000Y-18100000D01*
%TO.C,X1*%
X48630000Y-18090000D02*
X56710000Y-18090000D01*
X48630000Y-25110000D02*
X48630000Y-18090000D01*
X49830000Y-25110000D02*
X48630000Y-25110000D01*
X49830000Y-26810000D02*
X49830000Y-25110000D01*
X55510000Y-25110000D02*
X55510000Y-26810000D01*
X55510000Y-26810000D02*
X49830000Y-26810000D01*
X56710000Y-18090000D02*
X56710000Y-25110000D01*
X56710000Y-25110000D02*
X55510000Y-25110000D01*
X56910000Y-23000000D02*
X57510000Y-22700000D01*
X57510000Y-22700000D02*
X57510000Y-23300000D01*
X57510000Y-23300000D02*
X56910000Y-23000000D01*
%TO.C,X9*%
X94455000Y-29075000D02*
X94455000Y-36695000D01*
X94455000Y-36695000D02*
X100425000Y-36695000D01*
X95215000Y-29835000D02*
X95215000Y-32885000D01*
X95215000Y-35935000D02*
X95215000Y-32885000D01*
X98165000Y-29085000D02*
X98165000Y-29835000D01*
X98165000Y-29835000D02*
X95215000Y-29835000D01*
X98165000Y-35935000D02*
X95215000Y-35935000D01*
X98165000Y-36685000D02*
X98165000Y-35935000D01*
X99665000Y-29085000D02*
X99665000Y-30885000D01*
X99665000Y-30885000D02*
X100415000Y-30885000D01*
X99665000Y-32385000D02*
X99665000Y-33385000D01*
X99665000Y-33385000D02*
X100415000Y-33385000D01*
X99665000Y-34885000D02*
X99665000Y-36685000D01*
X99665000Y-36685000D02*
X100415000Y-36685000D01*
X100415000Y-29085000D02*
X99665000Y-29085000D01*
X100415000Y-30885000D02*
X100415000Y-29085000D01*
X100415000Y-32385000D02*
X99665000Y-32385000D01*
X100415000Y-33385000D02*
X100415000Y-32385000D01*
X100415000Y-34885000D02*
X99665000Y-34885000D01*
X100415000Y-36685000D02*
X100415000Y-34885000D01*
X100425000Y-29075000D02*
X94455000Y-29075000D01*
X100425000Y-36695000D02*
X100425000Y-29075000D01*
X100715000Y-28785000D02*
X99465000Y-28785000D01*
X100715000Y-30035000D02*
X100715000Y-28785000D01*
%TO.C,VD1*%
X47610000Y-25350000D02*
X42100000Y-25350000D01*
X47610000Y-28650000D02*
X42100000Y-28650000D01*
X47610000Y-28650000D02*
X47610000Y-25350000D01*
%TO.C,R1*%
X66077500Y-27545276D02*
X66077500Y-28054724D01*
X67122500Y-27545276D02*
X67122500Y-28054724D01*
%TO.C,C1*%
X61809000Y-22563323D02*
X58132000Y-22563323D01*
X61809000Y-22603323D02*
X58143000Y-22603323D01*
X61809000Y-22643323D02*
X58153000Y-22643323D01*
X61809000Y-22683323D02*
X58165000Y-22683323D01*
X61809000Y-22723323D02*
X58176000Y-22723323D01*
X61809000Y-22763323D02*
X58188000Y-22763323D01*
X61809000Y-22803323D02*
X58200000Y-22803323D01*
X61809000Y-22843323D02*
X58213000Y-22843323D01*
X61809000Y-22883323D02*
X58226000Y-22883323D01*
X61809000Y-22923323D02*
X58239000Y-22923323D01*
X61809000Y-22963323D02*
X58253000Y-22963323D01*
X61809000Y-23003323D02*
X58267000Y-23003323D01*
X61809000Y-23043323D02*
X58282000Y-23043323D01*
X61809000Y-23083323D02*
X58296000Y-23083323D01*
X61809000Y-23123323D02*
X58312000Y-23123323D01*
X61809000Y-23163323D02*
X58327000Y-23163323D01*
X61809000Y-23203323D02*
X58343000Y-23203323D01*
X61809000Y-23243323D02*
X58360000Y-23243323D01*
X61809000Y-23283323D02*
X58376000Y-23283323D01*
X61809000Y-23323323D02*
X58393000Y-23323323D01*
X61809000Y-23363323D02*
X58411000Y-23363323D01*
X61809000Y-23403323D02*
X58429000Y-23403323D01*
X61809000Y-23443323D02*
X58447000Y-23443323D01*
X61809000Y-23483323D02*
X58466000Y-23483323D01*
X61809000Y-23523323D02*
X58486000Y-23523323D01*
X61809000Y-23563323D02*
X58505000Y-23563323D01*
X61809000Y-23603323D02*
X58525000Y-23603323D01*
X61809000Y-23643323D02*
X58546000Y-23643323D01*
X61809000Y-23683323D02*
X58567000Y-23683323D01*
X61809000Y-23723323D02*
X58588000Y-23723323D01*
X61809000Y-23763323D02*
X58610000Y-23763323D01*
X61809000Y-23803323D02*
X58633000Y-23803323D01*
X61809000Y-23843323D02*
X58655000Y-23843323D01*
X61809000Y-23883323D02*
X58679000Y-23883323D01*
X61809000Y-23923323D02*
X58703000Y-23923323D01*
X61809000Y-23963323D02*
X58727000Y-23963323D01*
X61809000Y-24003323D02*
X58752000Y-24003323D01*
X61809000Y-24043323D02*
X58777000Y-24043323D01*
X61809000Y-24083323D02*
X58803000Y-24083323D01*
X61809000Y-24123323D02*
X58829000Y-24123323D01*
X61809000Y-24163323D02*
X58856000Y-24163323D01*
X61809000Y-24203323D02*
X58884000Y-24203323D01*
X61809000Y-24243323D02*
X58912000Y-24243323D01*
X61809000Y-24283323D02*
X58940000Y-24283323D01*
X61809000Y-24323323D02*
X58970000Y-24323323D01*
X61809000Y-24363323D02*
X59000000Y-24363323D01*
X61809000Y-24403323D02*
X59030000Y-24403323D01*
X61809000Y-24443323D02*
X59061000Y-24443323D01*
X61809000Y-24483323D02*
X59093000Y-24483323D01*
X61809000Y-24523323D02*
X59125000Y-24523323D01*
X61809000Y-24563323D02*
X59158000Y-24563323D01*
X61809000Y-24603323D02*
X59192000Y-24603323D01*
X61809000Y-24643323D02*
X59226000Y-24643323D01*
X61809000Y-24683323D02*
X59261000Y-24683323D01*
X61809000Y-24723323D02*
X59297000Y-24723323D01*
X61809000Y-24763323D02*
X59334000Y-24763323D01*
X61809000Y-24803323D02*
X59371000Y-24803323D01*
X61809000Y-24843323D02*
X59410000Y-24843323D01*
X61809000Y-24883323D02*
X59449000Y-24883323D01*
X61809000Y-24923323D02*
X59489000Y-24923323D01*
X61809000Y-24963323D02*
X59530000Y-24963323D01*
X61809000Y-25003323D02*
X59572000Y-25003323D01*
X63649000Y-26363323D02*
X62451000Y-26363323D01*
X63912000Y-26323323D02*
X62188000Y-26323323D01*
X64112000Y-26283323D02*
X61988000Y-26283323D01*
X64280000Y-26243323D02*
X61820000Y-26243323D01*
X64428000Y-26203323D02*
X61672000Y-26203323D01*
X64560000Y-26163323D02*
X61540000Y-26163323D01*
X64680000Y-26123323D02*
X61420000Y-26123323D01*
X64792000Y-26083323D02*
X61308000Y-26083323D01*
X64896000Y-26043323D02*
X61204000Y-26043323D01*
X64994000Y-26003323D02*
X61106000Y-26003323D01*
X65087000Y-25963323D02*
X61013000Y-25963323D01*
X65175000Y-25923323D02*
X60925000Y-25923323D01*
X65259000Y-25883323D02*
X60841000Y-25883323D01*
X65339000Y-25843323D02*
X60761000Y-25843323D01*
X65415000Y-25803323D02*
X60685000Y-25803323D01*
X65489000Y-25763323D02*
X60611000Y-25763323D01*
X65560000Y-25723323D02*
X60540000Y-25723323D01*
X65629000Y-25683323D02*
X60471000Y-25683323D01*
X65695000Y-25643323D02*
X60405000Y-25643323D01*
X65759000Y-25603323D02*
X60341000Y-25603323D01*
X65820000Y-25563323D02*
X60280000Y-25563323D01*
X65880000Y-25523323D02*
X60220000Y-25523323D01*
X65925000Y-15802677D02*
X65925000Y-16802677D01*
X65939000Y-25483323D02*
X60161000Y-25483323D01*
X65995000Y-25443323D02*
X60105000Y-25443323D01*
X66050000Y-25403323D02*
X60050000Y-25403323D01*
X66104000Y-25363323D02*
X59996000Y-25363323D01*
X66156000Y-25323323D02*
X59944000Y-25323323D01*
X66206000Y-25283323D02*
X59894000Y-25283323D01*
X66256000Y-25243323D02*
X59844000Y-25243323D01*
X66304000Y-25203323D02*
X59796000Y-25203323D01*
X66351000Y-25163323D02*
X59749000Y-25163323D01*
X66397000Y-25123323D02*
X59703000Y-25123323D01*
X66425000Y-16302677D02*
X65425000Y-16302677D01*
X66442000Y-25083323D02*
X59658000Y-25083323D01*
X66486000Y-25043323D02*
X59614000Y-25043323D01*
X66528000Y-25003323D02*
X64291000Y-25003323D01*
X66570000Y-24963323D02*
X64291000Y-24963323D01*
X66611000Y-24923323D02*
X64291000Y-24923323D01*
X66651000Y-24883323D02*
X64291000Y-24883323D01*
X66690000Y-24843323D02*
X64291000Y-24843323D01*
X66729000Y-24803323D02*
X64291000Y-24803323D01*
X66766000Y-24763323D02*
X64291000Y-24763323D01*
X66803000Y-24723323D02*
X64291000Y-24723323D01*
X66839000Y-24683323D02*
X64291000Y-24683323D01*
X66874000Y-24643323D02*
X64291000Y-24643323D01*
X66908000Y-24603323D02*
X64291000Y-24603323D01*
X66942000Y-24563323D02*
X64291000Y-24563323D01*
X66975000Y-24523323D02*
X64291000Y-24523323D01*
X67007000Y-24483323D02*
X64291000Y-24483323D01*
X67039000Y-24443323D02*
X64291000Y-24443323D01*
X67070000Y-24403323D02*
X64291000Y-24403323D01*
X67100000Y-24363323D02*
X64291000Y-24363323D01*
X67130000Y-24323323D02*
X64291000Y-24323323D01*
X67160000Y-24283323D02*
X64291000Y-24283323D01*
X67188000Y-24243323D02*
X64291000Y-24243323D01*
X67216000Y-24203323D02*
X64291000Y-24203323D01*
X67244000Y-24163323D02*
X64291000Y-24163323D01*
X67271000Y-24123323D02*
X64291000Y-24123323D01*
X67297000Y-24083323D02*
X64291000Y-24083323D01*
X67323000Y-24043323D02*
X64291000Y-24043323D01*
X67348000Y-24003323D02*
X64291000Y-24003323D01*
X67373000Y-23963323D02*
X64291000Y-23963323D01*
X67397000Y-23923323D02*
X64291000Y-23923323D01*
X67421000Y-23883323D02*
X64291000Y-23883323D01*
X67445000Y-23843323D02*
X64291000Y-23843323D01*
X67467000Y-23803323D02*
X64291000Y-23803323D01*
X67490000Y-23763323D02*
X64291000Y-23763323D01*
X67512000Y-23723323D02*
X64291000Y-23723323D01*
X67533000Y-23683323D02*
X64291000Y-23683323D01*
X67554000Y-23643323D02*
X64291000Y-23643323D01*
X67575000Y-23603323D02*
X64291000Y-23603323D01*
X67595000Y-23563323D02*
X64291000Y-23563323D01*
X67614000Y-23523323D02*
X64291000Y-23523323D01*
X67634000Y-23483323D02*
X64291000Y-23483323D01*
X67653000Y-23443323D02*
X64291000Y-23443323D01*
X67671000Y-23403323D02*
X64291000Y-23403323D01*
X67689000Y-23363323D02*
X64291000Y-23363323D01*
X67707000Y-23323323D02*
X64291000Y-23323323D01*
X67724000Y-23283323D02*
X64291000Y-23283323D01*
X67740000Y-23243323D02*
X64291000Y-23243323D01*
X67757000Y-23203323D02*
X64291000Y-23203323D01*
X67773000Y-23163323D02*
X64291000Y-23163323D01*
X67788000Y-23123323D02*
X64291000Y-23123323D01*
X67804000Y-23083323D02*
X64291000Y-23083323D01*
X67818000Y-23043323D02*
X64291000Y-23043323D01*
X67833000Y-23003323D02*
X64291000Y-23003323D01*
X67847000Y-22963323D02*
X64291000Y-22963323D01*
X67861000Y-22923323D02*
X64291000Y-22923323D01*
X67874000Y-22883323D02*
X64291000Y-22883323D01*
X67887000Y-22843323D02*
X64291000Y-22843323D01*
X67900000Y-22803323D02*
X64291000Y-22803323D01*
X67912000Y-22763323D02*
X64291000Y-22763323D01*
X67924000Y-22723323D02*
X64291000Y-22723323D01*
X67935000Y-22683323D02*
X64291000Y-22683323D01*
X67947000Y-22643323D02*
X64291000Y-22643323D01*
X67957000Y-22603323D02*
X64291000Y-22603323D01*
X67968000Y-22563323D02*
X64291000Y-22563323D01*
X67978000Y-22523323D02*
X58122000Y-22523323D01*
X67988000Y-22483323D02*
X58112000Y-22483323D01*
X67997000Y-22443323D02*
X58103000Y-22443323D01*
X68006000Y-22403323D02*
X58094000Y-22403323D01*
X68015000Y-22363323D02*
X58085000Y-22363323D01*
X68024000Y-22323323D02*
X58076000Y-22323323D01*
X68032000Y-22283323D02*
X58068000Y-22283323D01*
X68040000Y-22243323D02*
X58060000Y-22243323D01*
X68047000Y-22203323D02*
X58053000Y-22203323D01*
X68054000Y-22163323D02*
X58046000Y-22163323D01*
X68061000Y-22123323D02*
X58039000Y-22123323D01*
X68068000Y-22083323D02*
X58032000Y-22083323D01*
X68074000Y-22043323D02*
X58026000Y-22043323D01*
X68080000Y-22003323D02*
X58020000Y-22003323D01*
X68085000Y-21962323D02*
X58015000Y-21962323D01*
X68090000Y-21922323D02*
X58010000Y-21922323D01*
X68095000Y-21882323D02*
X58005000Y-21882323D01*
X68100000Y-21842323D02*
X58000000Y-21842323D01*
X68104000Y-21802323D02*
X57996000Y-21802323D01*
X68108000Y-21762323D02*
X57992000Y-21762323D01*
X68112000Y-21722323D02*
X57988000Y-21722323D01*
X68115000Y-21682323D02*
X57985000Y-21682323D01*
X68118000Y-21642323D02*
X57982000Y-21642323D01*
X68120000Y-21602323D02*
X57980000Y-21602323D01*
X68123000Y-21562323D02*
X57977000Y-21562323D01*
X68125000Y-21522323D02*
X57975000Y-21522323D01*
X68127000Y-21482323D02*
X57973000Y-21482323D01*
X68128000Y-21442323D02*
X57972000Y-21442323D01*
X68129000Y-21402323D02*
X57971000Y-21402323D01*
X68130000Y-21282323D02*
X57970000Y-21282323D01*
X68130000Y-21322323D02*
X57970000Y-21322323D01*
X68130000Y-21362323D02*
X57970000Y-21362323D01*
X68170000Y-21282323D02*
G75*
G02*
X57930000Y-21282323I-5120000J0D01*
G01*
X57930000Y-21282323D02*
G75*
G02*
X68170000Y-21282323I5120000J0D01*
G01*
%TO.C,C3*%
X42962500Y-37852500D02*
X43750000Y-37852500D01*
X43356250Y-37458750D02*
X43356250Y-38246250D01*
X43990000Y-37354437D02*
X43990000Y-38640000D01*
X43990000Y-37354437D02*
X45054437Y-36290000D01*
X43990000Y-42045563D02*
X43990000Y-40760000D01*
X43990000Y-42045563D02*
X45054437Y-43110000D01*
X45054437Y-36290000D02*
X50810000Y-36290000D01*
X45054437Y-43110000D02*
X50810000Y-43110000D01*
X50810000Y-36290000D02*
X50810000Y-38640000D01*
X50810000Y-43110000D02*
X50810000Y-40760000D01*
%TO.C,X10*%
X94455000Y-40875000D02*
X94455000Y-48495000D01*
X94455000Y-48495000D02*
X100425000Y-48495000D01*
X95215000Y-41635000D02*
X95215000Y-44685000D01*
X95215000Y-47735000D02*
X95215000Y-44685000D01*
X98165000Y-40885000D02*
X98165000Y-41635000D01*
X98165000Y-41635000D02*
X95215000Y-41635000D01*
X98165000Y-47735000D02*
X95215000Y-47735000D01*
X98165000Y-48485000D02*
X98165000Y-47735000D01*
X99665000Y-40885000D02*
X99665000Y-42685000D01*
X99665000Y-42685000D02*
X100415000Y-42685000D01*
X99665000Y-44185000D02*
X99665000Y-45185000D01*
X99665000Y-45185000D02*
X100415000Y-45185000D01*
X99665000Y-46685000D02*
X99665000Y-48485000D01*
X99665000Y-48485000D02*
X100415000Y-48485000D01*
X100415000Y-40885000D02*
X99665000Y-40885000D01*
X100415000Y-42685000D02*
X100415000Y-40885000D01*
X100415000Y-44185000D02*
X99665000Y-44185000D01*
X100415000Y-45185000D02*
X100415000Y-44185000D01*
X100415000Y-46685000D02*
X99665000Y-46685000D01*
X100415000Y-48485000D02*
X100415000Y-46685000D01*
X100425000Y-40875000D02*
X94455000Y-40875000D01*
X100425000Y-48495000D02*
X100425000Y-40875000D01*
X100715000Y-40585000D02*
X99465000Y-40585000D01*
X100715000Y-41835000D02*
X100715000Y-40585000D01*
%TO.C,U2*%
X68620000Y-17320000D02*
X91480000Y-17320000D01*
X91480000Y-27480000D01*
X68620000Y-27480000D01*
X68620000Y-17320000D01*
%TO.C,C2*%
X49903733Y-28490000D02*
X50196267Y-28490000D01*
X49903733Y-29510000D02*
X50196267Y-29510000D01*
%TO.C,X11*%
X94015000Y-51690000D02*
X94015000Y-59310000D01*
X94015000Y-59310000D02*
X99985000Y-59310000D01*
X94775000Y-52450000D02*
X94775000Y-55500000D01*
X94775000Y-58550000D02*
X94775000Y-55500000D01*
X97725000Y-51700000D02*
X97725000Y-52450000D01*
X97725000Y-52450000D02*
X94775000Y-52450000D01*
X97725000Y-58550000D02*
X94775000Y-58550000D01*
X97725000Y-59300000D02*
X97725000Y-58550000D01*
X99225000Y-51700000D02*
X99225000Y-53500000D01*
X99225000Y-53500000D02*
X99975000Y-53500000D01*
X99225000Y-55000000D02*
X99225000Y-56000000D01*
X99225000Y-56000000D02*
X99975000Y-56000000D01*
X99225000Y-57500000D02*
X99225000Y-59300000D01*
X99225000Y-59300000D02*
X99975000Y-59300000D01*
X99975000Y-51700000D02*
X99225000Y-51700000D01*
X99975000Y-53500000D02*
X99975000Y-51700000D01*
X99975000Y-55000000D02*
X99225000Y-55000000D01*
X99975000Y-56000000D02*
X99975000Y-55000000D01*
X99975000Y-57500000D02*
X99225000Y-57500000D01*
X99975000Y-59300000D02*
X99975000Y-57500000D01*
X99985000Y-51690000D02*
X94015000Y-51690000D01*
X99985000Y-59310000D02*
X99985000Y-51690000D01*
X100275000Y-51400000D02*
X99025000Y-51400000D01*
X100275000Y-52650000D02*
X100275000Y-51400000D01*
%TO.C,X2*%
X41390000Y-44290000D02*
X41390000Y-51910000D01*
X41390000Y-51910000D02*
X47360000Y-51910000D01*
X42150000Y-45050000D02*
X42150000Y-48100000D01*
X42150000Y-51150000D02*
X42150000Y-48100000D01*
X45100000Y-44300000D02*
X45100000Y-45050000D01*
X45100000Y-45050000D02*
X42150000Y-45050000D01*
X45100000Y-51150000D02*
X42150000Y-51150000D01*
X45100000Y-51900000D02*
X45100000Y-51150000D01*
X46600000Y-44300000D02*
X46600000Y-46100000D01*
X46600000Y-46100000D02*
X47350000Y-46100000D01*
X46600000Y-47600000D02*
X46600000Y-48600000D01*
X46600000Y-48600000D02*
X47350000Y-48600000D01*
X46600000Y-50100000D02*
X46600000Y-51900000D01*
X46600000Y-51900000D02*
X47350000Y-51900000D01*
X47350000Y-44300000D02*
X46600000Y-44300000D01*
X47350000Y-46100000D02*
X47350000Y-44300000D01*
X47350000Y-47600000D02*
X46600000Y-47600000D01*
X47350000Y-48600000D02*
X47350000Y-47600000D01*
X47350000Y-50100000D02*
X46600000Y-50100000D01*
X47350000Y-51900000D02*
X47350000Y-50100000D01*
X47360000Y-44290000D02*
X41390000Y-44290000D01*
X47360000Y-51910000D02*
X47360000Y-44290000D01*
X47650000Y-44000000D02*
X46400000Y-44000000D01*
X47650000Y-45250000D02*
X47650000Y-44000000D01*
%TO.C,X5*%
X64850000Y-42150000D02*
X57050000Y-42150000D01*
X64850000Y-36100000D02*
X64850000Y-42150000D01*
X63480000Y-41040000D02*
X63480000Y-42050000D01*
X58400000Y-42050000D02*
X58400000Y-41040000D01*
X58400000Y-41040000D02*
X63480000Y-41040000D01*
X57050000Y-42150000D02*
X57050000Y-36100000D01*
X57050000Y-36100000D02*
X64850000Y-36100000D01*
%TO.C,X3*%
X55250000Y-52250000D02*
X49200000Y-52250000D01*
X55250000Y-44450000D02*
X55250000Y-52250000D01*
X55150000Y-50900000D02*
X54140000Y-50900000D01*
X54140000Y-50900000D02*
X54140000Y-45820000D01*
X54140000Y-45820000D02*
X55150000Y-45820000D01*
X49200000Y-52250000D02*
X49200000Y-44450000D01*
X49200000Y-44450000D02*
X55250000Y-44450000D01*
%TD*%
M02*
