M48
; DRILL file {KiCad 8.0.4} date 2024-12-13T14:18:54+0300
; FORMAT={-:-/ absolute / metric / decimal}
; #@! TF.CreationDate,2024-12-13T14:18:54+03:00
; #@! TF.GenerationSoftware,Kicad,Pcbnew,8.0.4
; #@! TF.FileFunction,Plated,1,2,PTH
FMAT,2
METRIC
; #@! TA.AperFunction,Plated,PTH,ViaDrill
T1C0.600
; #@! TA.AperFunction,Plated,PTH,ComponentDrill
T2C0.600
; #@! TA.AperFunction,Plated,PTH,ComponentDrill
T3C0.762
; #@! TA.AperFunction,Plated,PTH,ComponentDrill
T4C0.950
; #@! TA.AperFunction,Plated,PTH,ComponentDrill
T5C1.000
; #@! TA.AperFunction,Plated,PTH,ComponentDrill
T6C1.020
; #@! TA.AperFunction,Plated,PTH,ComponentDrill
T7C1.700
%
G90
G05
T1
X40.45Y-25.25
X40.45Y-28.85
X40.5Y-30.25
X41.35Y-54.4
X41.75Y-60.3
X42.05Y-25.15
X42.15Y-37.7
X42.8Y-48.5
X42.8Y-50.55
X45.8Y-51.25
X46.65Y-24.6
X46.85Y-49.4
X48.0Y-56.05
X48.05Y-23.4
X48.2Y-20.95
X49.1Y-37.9
X49.15Y-41.6
X49.65Y-51.1
X49.8Y-20.75
X49.813Y-25.78
X51.75Y-37.8
X51.75Y-41.7
X51.9Y-20.8
X51.9Y-25.5
X52.1Y-53.7
X52.45Y-29.0
X53.1Y-58.75
X53.15Y-40.0
X53.85Y-51.05
X54.6Y-36.7
X55.1Y-51.05
X55.85Y-29.2
X56.0Y-38.6
X56.15Y-30.85
X56.15Y-32.3
X56.15Y-33.6
X56.25Y-34.8
X56.25Y-45.9
X57.8Y-21.3
X58.25Y-28.5
X58.35Y-36.75
X58.35Y-40.95
X58.35Y-43.8
X58.55Y-33.9
X58.9Y-26.9
X60.7Y-58.65
X61.15Y-24.55
X61.25Y-23.0
X61.65Y-26.0
X63.0Y-58.4
X63.5Y-55.75
X63.8Y-26.1
X65.0Y-23.05
X65.0Y-24.9
X65.5Y-57.8
X65.55Y-48.8
X65.75Y-60.35
X69.2Y-58.25
X69.25Y-47.15
X69.3Y-37.75
X69.35Y-35.9
X69.35Y-59.75
X69.45Y-26.75
X69.45Y-48.75
X69.6Y-25.05
X72.6Y-24.8
X72.7Y-26.85
X72.7Y-36.05
X72.7Y-58.05
X72.75Y-37.65
X73.0Y-48.75
X73.0Y-59.8
X73.15Y-47.05
X81.2Y-58.2
X81.45Y-31.35
X81.9Y-22.45
X82.05Y-40.25
X82.15Y-51.8
X88.35Y-33.3
X104.5Y-60.3
X104.8Y-27.6
X104.9Y-49.4
X105.1Y-35.5
T2
X51.15Y-30.95
X51.15Y-32.25
X51.15Y-33.55
X51.15Y-34.85
X52.45Y-30.95
X52.45Y-32.25
X52.45Y-33.55
X52.45Y-34.85
T3
X71.11Y-29.44
X71.11Y-34.52
X71.11Y-37.06
X71.11Y-51.64
X71.11Y-56.72
X71.11Y-59.26
X71.16Y-18.51
X71.16Y-23.59
X71.16Y-26.13
X71.16Y-40.51
X71.16Y-45.59
X71.16Y-48.13
X88.89Y-29.44
X88.89Y-37.06
X88.89Y-51.64
X88.89Y-59.26
X88.94Y-18.51
X88.94Y-26.13
X88.94Y-40.51
X88.94Y-48.13
T4
X51.75Y-56.725
X54.25Y-56.725
X56.75Y-56.725
X59.25Y-56.725
X61.75Y-56.725
T5
X44.9Y-46.85
X44.9Y-49.35
X63.05Y-18.782
X63.05Y-23.782
X97.525Y-54.25
X97.525Y-56.75
X97.575Y-20.95
X97.575Y-23.45
X97.965Y-31.635
X97.965Y-34.135
X97.965Y-43.435
X97.965Y-45.935
T6
X51.85Y-45.82
X51.85Y-48.36
X51.85Y-50.9
X58.4Y-38.75
X58.4Y-45.8
X58.45Y-31.65
X60.94Y-38.75
X60.94Y-45.8
X60.99Y-31.65
X63.48Y-38.75
X63.48Y-45.8
X63.53Y-31.65
T7
X50.69Y-23.0
X54.65Y-23.0
M30
